<?xml version="1.0" encoding="utf-8"?>
<!-- Generator: $$$/GeneralStr/196=Adobe Illustrator 27.6.0, SVG Export Plug-In . SVG Version: 6.00 Build 0)  -->
<svg version="1.1" id="Livello_1" xmlns="http://www.w3.org/2000/svg" xmlns:xlink="http://www.w3.org/1999/xlink" x="0px" y="0px"
	 viewBox="0 0 244.9 204.1" style="enable-background:new 0 0 244.9 204.1;" xml:space="preserve">
<style type="text/css">
	.st0{fill:#00265A;}
	.st1{fill:#A6C6E5;}
</style>
<g>
	<path class="st0" d="M125.4,102c0-18.2,0-36.3,0-54.5c0-1.8,0-1.8-1.7-1.8c-4.7,0-9.4,0-14,0c-0.8,0-1.3-0.1-1.2-1.1
		c0.1-1.2-0.5-2.8,0.3-3.4c0.6-0.6,2.2-0.2,3.4-0.2c30,0,60,0,90,0c1.3,0,1.5,0.4,1.5,1.5c0.2,8.1,0.4,16.2,0.7,24.3
		c0.1,3.5,0.2,7,0.4,10.5c0,0.8-0.2,1.1-1,1c-0.5-0.1-1,0-1.4,0c-2.3,0-2.3,0-2.8-2.3c-1.2-5.7-2.4-11.4-5-16.7
		c-3.8-7.8-9.9-12.5-18.8-13.2c-3.5-0.3-7-0.5-10.5-0.5c-5.5,0-11,0-16.6,0c-0.9,0-1.2,0.2-1.2,1.1c0,16.7,0,33.4,0,50.2
		c0,0.4-0.2,1,0.6,1c4.8-0.1,9.7-0.2,14.3-1.8c5.4-1.9,8.3-6,9.7-11.3c0.7-2.7,1.1-5.5,1.2-8.3c0-0.6,0.2-0.9,0.8-0.9
		c1.2,0,2.3,0,3.5,0c0.6,0,0.8,0.1,0.8,0.7c0,0.2,0,0.4,0,0.6c0,16.1,0,32.2,0,48.2c0,1.1-0.3,1.5-1.4,1.3c-0.9-0.1-1.8-0.1-2.8,0
		c-0.7,0-0.9-0.2-1-0.9c-0.3-3.5-0.7-7-1.7-10.3c-2.2-7.6-6.6-11.4-14.5-12.4c-2.9-0.4-5.8-0.3-8.7-0.4c-0.8,0-0.9,0.3-0.9,1
		c0,3.6,0,7.1,0,10.7c0,14.2,0,28.5,0,42.7c0,1.1,0.3,1.3,1.3,1.3c4.8-0.1,9.7,0,14.5,0c0.9,0,1.2,0.2,1.1,1.1
		c-0.1,1.1,0.4,2.7-0.2,3.4c-0.7,0.7-2.3,0.2-3.4,0.2c-17,0-34,0-51,0c-1.1,0-1.4-0.3-1.3-1.4c0.1-1.1-0.3-2.5,0.2-3.1
		c0.6-0.7,2-0.2,3.1-0.2c4,0,7.9,0,11.9,0c1.7,0,1.7,0,1.7-1.8C125.4,138.3,125.4,120.2,125.4,102z"/>
	<path class="st1" d="M234.5,102c0-33.5,0-66.9,0-100.4c0-1.5,0-1.5,1.6-1.6c2.6,0,5.2,0,7.8,0c0.7,0,1.1,0.2,1,0.9
		c0,0.3,0,0.6,0,0.8c0,66.9,0,133.8,0,200.7c0,1.9,0.2,1.7-1.7,1.7c-2.5,0-5,0-7.6,0c-0.8,0-1.1-0.2-1-1c0-0.3,0-0.6,0-1
		C234.5,168.9,234.5,135.4,234.5,102z"/>
	<path class="st0" d="M22.9,192.7c-2.8-0.1-5.2-0.8-7.3-2.4c-0.6-0.4-0.6-0.7-0.1-1.2c0.4-0.4,0.6-1.2,1.4-0.4c2,1.8,4.3,2.5,7,2.1
		c1.3-0.2,2.4-0.8,3-2.1c0.5-1.3,0-2.7-1.3-3.5c-1.3-0.7-2.7-1-4.1-1.3c-1.1-0.3-2.2-0.6-3.2-1.2c-1.7-0.9-2.5-2.2-2.5-4
		c0-1.9,0.8-3.3,2.4-4.2c2.8-1.6,7.4-1.2,10,0.8c0.4,0.3,0.5,0.6,0.1,0.9c-0.4,0.3-0.4,1.4-1.4,0.7c-1.2-0.9-2.6-1.4-4.1-1.6
		c-1.1-0.2-2.1,0-3,0.4c-1.1,0.4-1.8,1.2-1.8,2.4c-0.1,1.2,0.4,2.1,1.5,2.7c1.3,0.7,2.7,0.9,4.1,1.3c1,0.3,2,0.6,2.9,1
		c1.8,0.9,2.8,2.3,2.8,4.4c-0.1,2.1-1.1,3.6-3,4.5C25.1,192.5,23.9,192.6,22.9,192.7z"/>
	<path class="st0" d="M101.7,130.2c-0.2-8.5-3.7-15.4-10.3-20.8c-6.2-5.1-13.6-7.8-21.5-9.1c-1.5-0.2-2.9-0.4-4.4-0.6
		c0-0.1,0-0.1,0-0.5c0.1,0,0.2-0.1,0.3-0.1c6.2-1,12.2-2.9,17.7-6s10-7.2,12.5-13.2c1.7-3.9,2.1-7.9,1.8-12.1
		c-0.4-6-2.4-11.5-6.7-15.9c-4.7-4.8-10.8-7.2-17.2-8.8c-7.3-1.8-14.7-2.2-22.1-2.2c-16,0-32.1,0-48.2,0c-1.1,0-2.7-0.5-3.3,0.2
		c-0.6,0.7-0.1,2.3-0.2,3.4c-0.1,0.9,0.2,1.1,1.1,1.1c4.6,0,9.3,0,13.9,0c0.8,0,1.1,0.1,1.1,1c0,36.8,0,73.7,0,110.5
		c0,0.8-0.1,1.1-1,1.1c-4,0-7.9,0-11.8,0c-1.1,0-2.5-0.5-3.1,0.2c-0.5,0.6-0.1,2-0.2,3.1c-0.1,1.1,0.2,1.4,1.3,1.4
		c15.1,0.1,30.2-0.1,45.3,0.1c5.1,0.1,10.1,0.2,15.2-0.1c7.9-0.4,15.5-1.6,22.6-5.1c3.9-1.9,7.5-4.4,10.4-7.7
		C99.9,144.4,101.9,137.7,101.7,130.2z M38.1,96.6c0.1-8.4,0.1-16.7,0.1-24.9c0-8.3,0-16.5,0-24.8c0-0.9,0.2-1.1,1.1-1.1
		c4.9,0.1,9.8,0,14.7,0c3,0,6,0.3,9,1.2c5.3,1.5,8.3,5.2,9.8,10.3c0.9,3.1,1.4,6.3,1.5,9.5c0.2,5.2,0.1,10.4-1.1,15.4
		c-1.2,4.9-3.2,9.4-7.6,12.3c-2.9,1.9-6.1,2.8-9.5,3c-5.7,0.3-11.4,0-17.1,0.2C38,97.7,38.1,97.2,38.1,96.6z M76.9,134.7
		c-0.2,4.6-0.8,9-2.6,13.3c-2.2,5.6-6.1,9.3-12.2,10.1c-0.7,0.1-1.4,0.2-2.1,0.2c-7,0-14.1,0-21.1,0c-1,0-0.7-0.6-0.7-1.1
		c0-8.2,0-16.4,0-24.6c0-0.8,0-1.6,0-2.4c0-9,0-17.9,0-26.9c0-0.9,0.2-1.1,1.1-1.1c5.4,0,10.7-0.1,16.1,0.1c5.1,0.1,10,1.2,14,4.6
		c3.2,2.6,5,6.1,6.1,10C77.1,122.7,77.2,128.7,76.9,134.7z"/>
	<path class="st0" d="M64.3,174.2c-0.3-0.7-0.7-0.7-1.3-0.7c-0.6,0-1,0-1.3,0.7c-1.3,3.1-2.8,6.2-4.2,9.3c-1.3,2.9-2.6,5.8-3.9,8.8
		c2.1,0.3,2.1,0.3,2.8-1.4c0.4-0.9,0.9-1.7,1.2-2.6c0.2-0.8,0.7-0.9,1.4-0.9c1.8,0,3.7,0,5.6,0c1.2,0,2.7-0.4,3.5,0.2
		c0.8,0.5,1,2,1.5,3.1c0.8,1.9,0.8,1.9,3,1.7C69.8,186.3,67,180.2,64.3,174.2z M58.7,185.6c1.4-3.2,2.8-6.3,4.3-9.6
		c1.4,3.3,2.8,6.4,4.2,9.6C64.3,185.6,61.6,185.6,58.7,185.6z"/>
	<path class="st0" d="M47,180.2c-2.8-2.8-6.4-2.5-9.9,0.9c0-0.8,0-1.4,0.1-1.9c0-0.9-0.7-0.6-1.1-0.6c-0.4,0-1-0.2-1,0.6
		c0,5.7,0,11.3,0,17c0,0.2-0.1,0.5,0.3,0.6c1.2,0.3,1.7,0,1.7-1.2c0-1.6,0-3.1,0-4.6c0-0.2-0.2-0.6,0.2-0.7c3.1,3.7,7.4,2.9,9.7,0.6
		C49.8,188.2,49.7,182.9,47,180.2z M42.1,191c-2.8,0-5.1-2.5-5.1-5.5c0-2.9,2.3-5.5,5-5.5c2.8-0.1,4.9,2.3,4.9,5.5
		C46.9,188.7,45,191,42.1,191z"/>
</g>
</svg>
